<svg width="165" height="60" viewBox="0 0 165 60" fill="none" xmlns="http://www.w3.org/2000/svg">
<path d="M0.519068 34.4151C0.519068 23.9497 1.48305 13.3836 3.41102 2.71698C3.55933 1.96226 4.05368 1.33333 4.89407 0.830187C5.7839 0.276729 6.69845 0 7.63772 0C9.41738 0 10.4308 0.754716 10.678 2.26415C10.9252 3.77358 11.0487 5.4088 11.0487 7.16981C11.0487 9.98742 10.5544 14.2138 9.56569 19.8491C8.62642 25.4843 8.15679 29.761 8.15679 32.6792C8.15679 35.2453 8.42868 37.6352 8.97247 39.8491C16.1406 39.8491 21.0346 39.195 23.6547 37.8868C24.8411 37.0818 25.8793 36.6792 26.7691 36.6792C27.3129 36.6792 27.8072 36.7799 28.2522 36.9811C30.0318 38.8428 30.9216 40.2516 30.9216 41.2075C30.9216 41.4088 30.8722 41.5849 30.7733 41.7359C28.2027 44.7547 23.803 46.2893 17.5742 46.3396H13.3475C8.94775 46.3899 5.51201 46.9937 3.04026 48.1509C1.01342 46.8428 0 44.6541 0 41.5849C0 40.7799 0.0741526 39.5723 0.222458 37.9623C0.420198 36.3522 0.519068 35.1698 0.519068 34.4151Z" fill="#FBF0DC"/>
<path d="M33.7904 18.2642C33.6916 17.3585 33.5927 16.4528 33.4938 15.5472C33.4938 14.3899 33.7163 13.5597 34.1612 13.0566C34.9521 11.8491 36.1386 11.2453 37.7205 11.2453C39.2036 11.2453 40.217 11.8491 40.7608 13.0566C41.4529 14.566 41.7742 16.6541 41.7248 19.3208C41.6753 22.7421 41.7248 24.8805 41.8731 25.7358C41.9719 26.088 42.1202 26.2642 42.318 26.2642C42.4663 26.2642 42.8123 25.9623 43.3561 25.3585C44.4437 22.8931 45.5065 20.4528 46.5447 18.0377C47.9289 15.3208 49.5602 13.4088 51.4388 12.3019C51.9825 12 52.6746 11.8491 53.515 11.8491C55.5419 11.8491 56.5553 12.5535 56.5553 13.9623C56.5553 14.3648 56.4317 14.8176 56.1845 15.3208C54.1577 19.044 52.1308 22.7673 50.104 26.4906C47.83 30.9686 46.5694 35.0692 46.3222 38.7925C45.9762 42.9182 44.592 47.2453 42.1697 51.7736C39.3024 57.2579 36.0644 60 32.4557 60C29.9839 60 28.3278 59.1446 27.4875 57.434C26.6471 55.7233 26.2269 54.2893 26.2269 53.1321C26.2269 51.8239 26.7459 50.8679 27.7841 50.2642C28.1795 50.0126 28.575 49.8868 28.9705 49.8868C29.8109 49.8868 30.5771 50.2138 31.2692 50.8679C31.9613 51.5723 32.3815 52.3522 32.5298 53.2076C34.8038 51.3962 36.2375 49.7107 36.8307 48.1509C37.2756 45.9371 37.7452 43.6981 38.2396 41.434C38.3385 40.9811 38.3879 40.5283 38.3879 40.0755C38.3879 38.8679 37.8935 37.1824 36.9048 35.0189C35.9161 32.8553 35.3723 31.2704 35.2735 30.2642C34.9274 27.6478 34.4331 23.6478 33.7904 18.2642Z" fill="#FBF0DC"/>
<path d="M55.6488 35.5815C56.4397 30.8519 58.4913 26.9777 61.8034 23.9588C64.5224 21.4934 66.3762 19.9085 67.3649 19.2041C69.6883 17.5437 71.8388 16.7136 73.8162 16.7136C74.8543 16.7136 75.843 16.94 76.7823 17.3928C77.5238 17.6947 77.8946 18.2985 77.8946 19.2041C77.8946 19.5563 77.8451 19.9337 77.7463 20.3362C77.153 22.1475 75.8677 23.5563 73.8903 24.5626C70.5782 26.1727 68.7738 27.0783 68.4772 27.2796C64.819 30.0972 62.891 33.1161 62.6933 36.3362C62.4955 39.0532 63.0146 41.3928 64.2505 43.3551C64.8931 44.4117 65.9066 45.2419 67.2907 45.8456C68.5266 46.2481 69.7872 46.6758 71.0725 47.1286C71.5174 47.3299 71.9871 47.4305 72.4814 47.4305C73.569 47.4305 75.0026 46.7261 76.7823 45.3173C78.6114 43.8582 79.9708 43.1035 80.8607 43.0532C82.0471 42.9525 82.6403 43.506 82.6403 44.7136C82.6403 46.0217 82.1954 47.3802 81.3056 48.789C79.3776 51.8079 76.3868 53.3173 72.3331 53.3173C70.2074 53.3173 67.7604 52.9148 64.992 52.1098C62.0259 51.2544 59.6777 49.5689 57.9475 47.0532C56.2667 44.5375 55.4263 41.6444 55.4263 38.3739C55.4263 37.4683 55.5005 36.5375 55.6488 35.5815Z" fill="#FBF0DC"/>
<path d="M88.2745 27.3962C88.2745 26.5912 88.2003 25.3333 88.052 23.6226C87.9037 21.9119 87.8296 20.6289 87.8296 19.7736C87.8296 17.8616 88.1756 16.2516 88.8677 14.9434C89.362 13.6855 90.499 13.0566 92.2787 13.0566C92.9214 13.0566 93.5146 13.1824 94.0584 13.434C94.701 13.8365 95.0224 14.8679 95.0224 16.5283C94.4291 21.7107 94.1325 25.0818 94.1325 26.6415C94.1325 29.1572 94.4291 31.4465 95.0224 33.5094C97.9885 28.2767 101.152 25.6604 104.514 25.6604C105.453 25.6604 106.392 25.8616 107.332 26.2642C109.507 35.4717 110.594 42.1635 110.594 46.3396C110.594 47.5472 110.545 48.7296 110.446 49.8868C110.397 50.4906 110.001 50.9937 109.26 51.3962C108.568 51.7987 107.801 52 106.961 52C106.17 52 105.577 51.7987 105.181 51.3962C103.847 49.6855 103.179 47.0692 103.179 43.5472C103.179 43.2453 103.179 42.7673 103.179 42.1132C103.179 41.4088 103.179 40.8805 103.179 40.5283C103.179 37.4088 102.734 34.9686 101.844 33.2075C98.8289 36.2767 96.1347 40.3522 93.7618 45.434C93.4652 45.9371 92.8719 46.3648 91.9821 46.717C91.0923 47.0692 90.3507 47.1698 89.7575 47.0189C89.2632 46.9182 88.7688 46.7925 88.2745 46.6415C87.6318 46.4403 87.3105 46.1635 87.3105 45.8113C87.3105 43.7484 87.4588 40.6792 87.7554 36.6038C88.1014 32.5283 88.2745 29.4591 88.2745 27.3962Z" fill="#FBF0DC"/>
<path d="M112.554 24.3362C112.603 23.028 112.677 21.6695 112.776 20.2607C112.924 18.8519 113.468 17.8205 114.408 17.1664C115.149 16.8645 115.989 16.7136 116.929 16.7136C119.45 16.7136 120.711 17.6192 120.711 19.4305C120.711 19.4305 120.612 21.8959 120.414 26.8268C120.315 29.7953 120.414 32.2607 120.711 34.223C121.106 35.984 121.501 37.745 121.897 39.506C122.54 41.7198 123.306 42.8268 124.196 42.8268C124.492 42.8268 124.814 42.7261 125.16 42.5249C129.263 39.6569 131.314 35.3299 131.314 29.5437C131.314 26.223 130.499 23.2293 128.867 20.5626C127.977 19.1035 127.533 17.7953 127.533 16.6381C127.533 15.179 128.521 14.4494 130.499 14.4494C132.427 14.4494 134.132 15.5563 135.615 17.7702C136.95 19.7324 137.667 21.7953 137.766 23.9588C138.062 29.1412 137.469 33.8205 135.986 37.9966C134.256 42.8771 131.512 46.1475 127.755 47.8079C126.223 48.462 124.789 48.789 123.454 48.789C119.697 48.789 116.83 46.3236 114.852 41.3928C113.221 37.418 112.405 32.6884 112.405 27.2041C112.405 26.1978 112.455 25.2419 112.554 24.3362Z" fill="#FBF0DC"/>
<path d="M139.714 24.3362C139.763 23.028 139.838 21.6695 139.936 20.2607C140.085 18.8519 140.629 17.8205 141.568 17.1664C142.309 16.8645 143.15 16.7136 144.089 16.7136C146.61 16.7136 147.871 17.6192 147.871 19.4305C147.871 19.4305 147.772 21.8959 147.574 26.8268C147.475 29.7953 147.574 32.2607 147.871 34.223C148.266 35.984 148.662 37.745 149.057 39.506C149.7 41.7198 150.466 42.8268 151.356 42.8268C151.653 42.8268 151.974 42.7261 152.32 42.5249C156.423 39.6569 158.475 35.3299 158.475 29.5437C158.475 26.223 157.659 23.2293 156.028 20.5626C155.138 19.1035 154.693 17.7953 154.693 16.6381C154.693 15.179 155.682 14.4494 157.659 14.4494C159.587 14.4494 161.292 15.5563 162.775 17.7702C164.11 19.7324 164.827 21.7953 164.926 23.9588C165.222 29.1412 164.629 33.8205 163.146 37.9966C161.416 42.8771 158.672 46.1475 154.915 47.8079C153.383 48.462 151.949 48.789 150.614 48.789C146.857 48.789 143.99 46.3236 142.013 41.3928C140.381 37.418 139.566 32.6884 139.566 27.2041C139.566 26.1978 139.615 25.2419 139.714 24.3362Z" fill="#FBF0DC"/>
</svg>
