<svg width="387" height="138" viewBox="0 0 387 138" fill="none" xmlns="http://www.w3.org/2000/svg">
<path d="M1.2146 78.9741C1.2146 54.9586 3.47029 30.7121 7.98167 6.23479C8.32869 4.5029 9.48546 3.05966 11.452 1.90507C13.5341 0.635024 15.6741 0 17.872 0C22.0363 0 24.4077 1.73189 24.9861 5.19566C25.5645 8.65944 25.8537 12.4119 25.8537 16.4529C25.8537 22.9187 24.6969 32.6172 22.3834 45.5487C20.1855 58.4801 19.0866 68.2941 19.0866 74.9908C19.0866 80.8792 19.7228 86.3635 20.9952 91.4437C37.7683 91.4437 49.2203 89.9427 55.3511 86.9408C58.1273 85.0934 60.5565 84.1698 62.6387 84.1698C63.9112 84.1698 65.0679 84.4007 66.109 84.8625C70.2734 89.1345 72.3555 92.3674 72.3555 94.5611C72.3555 95.0229 72.2398 95.427 72.0085 95.7734C65.9933 102.701 55.6981 106.222 41.1229 106.338H31.2326C20.9374 106.453 12.8979 107.839 7.11409 110.494C2.37136 107.493 0 102.47 0 95.427C0 93.5797 0.173514 90.8087 0.520543 87.114C0.983249 83.4193 1.2146 80.706 1.2146 78.9741Z" fill="black"/>
<path d="M79.0684 41.9117C78.837 39.8334 78.6057 37.7552 78.3743 35.6769C78.3743 33.0213 78.8949 31.1163 79.9359 29.9617C81.7868 27.1906 84.563 25.8051 88.2646 25.8051C91.7349 25.8051 94.1063 27.1906 95.3787 29.9617C96.9982 33.4254 97.7501 38.217 97.6344 44.3363C97.5187 52.1876 97.6344 57.0946 97.9814 59.0574C98.2128 59.8656 98.5598 60.2697 99.0225 60.2697C99.3696 60.2697 100.179 59.577 101.452 58.1914C103.997 52.5339 106.484 46.9342 108.913 41.3921C112.152 35.1573 115.969 30.7699 120.365 28.2298C121.637 27.537 123.257 27.1906 125.223 27.1906C129.966 27.1906 132.337 28.8071 132.337 32.0399C132.337 32.9636 132.048 34.0027 131.47 35.1573C126.727 43.7013 121.984 52.2453 117.242 60.7893C111.92 71.0651 108.971 80.4751 108.392 89.0191C107.583 98.4867 104.344 108.416 98.6755 118.808C91.9663 131.393 84.3895 137.685 75.9451 137.685C70.1613 137.685 66.2861 135.722 64.3196 131.797C62.3531 127.871 61.3699 124.58 61.3699 121.925C61.3699 118.923 62.5845 116.729 65.0137 115.344C65.9391 114.766 66.8645 114.478 67.7899 114.478C69.7564 114.478 71.5494 115.228 73.1689 116.729C74.7883 118.346 75.7716 120.135 76.1186 122.098C81.4397 117.942 84.7943 114.074 86.1824 110.494C87.2235 105.414 88.3225 100.276 89.4792 95.0807C89.7106 94.0415 89.8263 93.0024 89.8263 91.9633C89.8263 89.1922 88.6695 85.3244 86.356 80.3596C84.0424 75.3949 82.77 71.7579 82.5387 69.4487C81.7289 63.4448 80.5722 54.2658 79.0684 41.9117Z" fill="black"/>
<path d="M130.216 81.6507C132.067 70.7975 136.868 61.9071 144.618 54.9796C150.98 49.3221 155.318 45.6851 157.631 44.0687C163.068 40.2585 168.1 38.3535 172.727 38.3535C175.156 38.3535 177.47 38.873 179.668 39.9122C181.403 40.6049 182.27 41.9904 182.27 44.0687C182.27 44.8769 182.155 45.7428 181.923 46.6665C180.535 50.8231 177.528 54.0559 172.901 56.3651C165.15 60.0598 160.928 62.1381 160.234 62.5999C151.674 69.0656 147.163 75.9932 146.7 83.3826C146.237 89.6173 147.452 94.9862 150.344 99.4891C151.848 101.914 154.219 103.819 157.458 105.204C160.35 106.128 163.3 107.109 166.307 108.149C167.348 108.61 168.447 108.841 169.604 108.841C172.149 108.841 175.503 107.225 179.668 103.992C183.948 100.644 187.129 98.9118 189.211 98.7964C191.987 98.5654 193.375 99.8355 193.375 102.607C193.375 105.608 192.334 108.726 190.252 111.959C185.741 118.886 178.742 122.35 169.257 122.35C164.283 122.35 158.557 121.426 152.079 119.579C145.138 117.616 139.644 113.748 135.595 107.975C131.662 102.202 129.696 95.5635 129.696 88.0587C129.696 85.9804 129.869 83.8444 130.216 81.6507Z" fill="black"/>
<path d="M206.559 62.8675C206.559 61.0202 206.386 58.1337 206.039 54.2081C205.691 50.2825 205.518 47.3383 205.518 45.3755C205.518 40.988 206.328 37.2933 207.947 34.2914C209.104 31.4049 211.764 29.9617 215.929 29.9617C217.433 29.9617 218.821 30.2503 220.093 30.8276C221.597 31.7513 222.349 34.1182 222.349 37.9283C220.961 49.8206 220.267 57.5564 220.267 61.1356C220.267 66.9086 220.961 72.162 222.349 76.8958C229.289 64.8881 236.693 58.8842 244.559 58.8842C246.757 58.8842 248.954 59.346 251.152 60.2697C256.242 81.3987 258.787 96.7548 258.787 106.338C258.787 109.109 258.671 111.822 258.44 114.478C258.324 115.863 257.399 117.018 255.664 117.942C254.044 118.865 252.251 119.327 250.285 119.327C248.434 119.327 247.046 118.865 246.12 117.942C242.997 114.016 241.435 108.012 241.435 99.93C241.435 99.2372 241.435 98.1403 241.435 96.6394C241.435 95.0229 241.435 93.8106 241.435 93.0024C241.435 85.8439 240.394 80.2442 238.312 76.2031C231.256 83.2461 224.952 92.5983 219.399 104.26C218.705 105.414 217.317 106.396 215.235 107.204C213.153 108.012 211.417 108.243 210.029 107.897C208.873 107.666 207.716 107.377 206.559 107.031C205.055 106.569 204.303 105.934 204.303 105.126C204.303 100.392 204.65 93.3488 205.344 83.9966C206.154 74.6444 206.559 67.6014 206.559 62.8675Z" fill="black"/>
<path d="M263.372 55.8455C263.487 52.8436 263.661 49.7262 263.892 46.4933C264.239 43.2605 265.512 40.8936 267.709 39.3926C269.445 38.6998 271.411 38.3535 273.609 38.3535C279.508 38.3535 282.458 40.4317 282.458 44.5883C282.458 44.5883 282.227 50.2458 281.764 61.5608C281.533 68.3729 281.764 74.0304 282.458 78.5333C283.384 82.5743 284.309 86.6154 285.234 90.6565C286.738 95.7367 288.531 98.2768 290.613 98.2768C291.307 98.2768 292.059 98.0459 292.869 97.584C302.47 91.0029 307.271 81.0734 307.271 67.7956C307.271 60.1753 305.362 53.3054 301.545 47.1861C299.463 43.8378 298.422 40.8358 298.422 38.1803C298.422 34.832 300.735 33.1578 305.362 33.1578C309.873 33.1578 313.864 35.6979 317.335 40.7781C320.458 45.281 322.135 50.0148 322.367 54.9796C323.061 66.8719 321.672 77.6096 318.202 87.1927C314.154 98.3923 307.733 105.897 298.942 109.707C295.356 111.208 292.001 111.959 288.878 111.959C280.087 111.959 273.378 106.301 268.751 94.9862C264.933 85.8649 263.025 75.0118 263.025 62.4267C263.025 60.1175 263.14 57.9238 263.372 55.8455Z" fill="black"/>
<path d="M326.926 55.8455C327.041 52.8436 327.215 49.7262 327.446 46.4933C327.793 43.2605 329.066 40.8936 331.263 39.3926C332.999 38.6998 334.965 38.3535 337.163 38.3535C343.062 38.3535 346.012 40.4317 346.012 44.5883C346.012 44.5883 345.781 50.2458 345.318 61.5608C345.087 68.3729 345.318 74.0304 346.012 78.5333C346.938 82.5743 347.863 86.6154 348.788 90.6565C350.292 95.7367 352.085 98.2768 354.167 98.2768C354.861 98.2768 355.613 98.0459 356.423 97.584C366.024 91.0029 370.825 81.0734 370.825 67.7956C370.825 60.1753 368.916 53.3054 365.099 47.1861C363.017 43.8378 361.976 40.8358 361.976 38.1803C361.976 34.832 364.289 33.1578 368.916 33.1578C373.427 33.1578 377.418 35.6979 380.889 40.7781C384.012 45.281 385.689 50.0148 385.921 54.9796C386.615 66.8719 385.226 77.6096 381.756 87.1927C377.707 98.3923 371.287 105.897 362.496 109.707C358.91 111.208 355.556 111.959 352.432 111.959C343.641 111.959 336.932 106.301 332.305 94.9862C328.487 85.8649 326.579 75.0118 326.579 62.4267C326.579 60.1175 326.694 57.9238 326.926 55.8455Z" fill="black"/>
</svg>
