<svg xmlns="http://www.w3.org/2000/svg" version="1.1" xmlns:xlink="http://www.w3.org/1999/xlink" xmlns:svgjs="http://svgjs.com/svgjs" width="243" height="199"><svg width="243" height="199" viewBox="0 0 243 199" fill="none" xmlns="http://www.w3.org/2000/svg">
<path d="M222.135 113.238C213.548 134.04 187.574 145.364 166.653 140.51C152.934 137.328 156.348 128.835 165.114 126.328C173.879 123.822 214.635 115.985 207.588 91.113C185.941 54.0074 101.883 97.3653 91.162 98.316C82.1256 100.678 73.5676 85.4337 82.1761 79.0781C105.779 61.6524 146.218 58.0505 165.919 58.9051C187.855 60.4286 240.416 68.9492 222.135 113.238Z" fill="#0A0601"></path>
<path d="M19.0137 91.6206C26.2794 70.321 51.4929 57.3918 72.6772 60.9242C86.5681 63.2404 83.6936 71.9307 75.1022 74.9819C66.5109 78.033 26.327 88.4093 34.9194 112.79C58.8496 148.466 140.024 99.9242 150.665 98.3033C159.535 95.3791 169.032 110.057 160.839 116.94C138.375 135.811 98.241 141.941 78.5251 142.323C56.5363 142.177 3.54515 136.968 19.0137 91.6206Z" fill="#0A0601"></path>
</svg><style>@media (prefers-color-scheme: light) { :root { filter: none; } }
@media (prefers-color-scheme: dark) { :root { filter: invert(100%); } }
</style></svg>