<?xml version="1.0" standalone="no"?>
<!DOCTYPE svg PUBLIC "-//W3C//DTD SVG 20010904//EN"
 "http://www.w3.org/TR/2001/REC-SVG-20010904/DTD/svg10.dtd">
<svg version="1.0" xmlns="http://www.w3.org/2000/svg"
 width="972.000000pt" height="972.000000pt" viewBox="0 0 972.000000 972.000000"
 preserveAspectRatio="xMidYMid meet">
<metadata>
Created by potrace 1.14, written by Peter Selinger 2001-2017
</metadata>
<g transform="translate(0.000000,972.000000) scale(0.100000,-0.100000)"
fill="#000000" stroke="none">
<path d="M6096 6482 c-2 -2 -46 -5 -98 -7 -88 -3 -187 -11 -268 -20 -19 -3
-64 -7 -100 -11 -89 -8 -108 -11 -160 -19 -25 -4 -61 -8 -80 -10 -41 -4 -62
-7 -282 -45 -93 -16 -185 -34 -205 -39 -21 -6 -54 -13 -73 -16 -46 -9 -52 -10
-75 -18 -11 -3 -31 -8 -45 -11 -31 -5 -259 -65 -280 -73 -8 -3 -19 -7 -25 -8
-103 -24 -453 -155 -593 -223 -34 -17 -62 -27 -62 -24 0 4 -4 2 -8 -3 -4 -6
-29 -21 -57 -35 -27 -13 -94 -50 -148 -82 -55 -32 -101 -58 -103 -58 -3 0 -10
-5 -17 -10 -7 -6 -49 -37 -93 -69 -77 -56 -134 -115 -134 -139 0 -6 -4 -12 -8
-14 -16 -6 -39 -113 -36 -167 5 -83 10 -108 39 -181 20 -50 31 -70 37 -70 4 0
8 -6 8 -13 0 -19 91 -117 144 -155 25 -18 46 -30 46 -26 0 3 7 1 14 -6 39 -32
146 -38 251 -16 57 13 164 44 190 56 11 5 38 14 60 21 22 7 44 17 49 21 6 4
16 8 24 8 8 0 28 6 45 14 49 21 176 68 190 70 6 1 17 4 22 8 16 10 419 159
555 205 53 18 53 18 155 54 44 16 89 31 99 34 10 2 35 10 55 17 20 7 38 13 41
13 3 1 12 4 20 8 25 9 120 39 133 41 7 1 17 4 22 7 6 4 24 10 40 14 51 12 58
14 130 36 68 20 195 56 225 63 8 2 42 11 75 19 33 9 71 18 85 21 14 3 38 8 54
11 16 3 33 8 37 10 4 3 24 7 45 11 22 3 55 9 74 14 19 5 49 12 65 14 17 3 41
8 55 11 14 3 39 7 55 10 17 3 41 7 55 10 29 5 103 16 140 20 14 2 41 6 60 9
171 26 569 39 695 22 28 -4 68 -9 90 -11 51 -4 199 -33 250 -49 6 -1 30 -8 55
-15 65 -19 174 -63 178 -73 2 -4 12 -8 21 -8 10 0 30 -9 44 -20 14 -11 29 -20
34 -20 33 0 313 -243 313 -271 0 -3 9 -17 21 -30 67 -77 93 -170 92 -334 -2
-308 -227 -585 -654 -803 -92 -47 -286 -134 -309 -138 -5 -1 -14 -4 -75 -27
-16 -7 -32 -12 -35 -13 -3 0 -12 -3 -20 -6 -59 -22 -208 -68 -230 -71 -8 -2
-19 -5 -25 -9 -5 -3 -26 -9 -45 -14 -19 -4 -39 -9 -45 -10 -5 -1 -55 -14 -110
-29 -55 -15 -104 -28 -110 -30 -226 -50 -371 -169 -377 -310 -2 -40 21 -85 67
-132 47 -46 77 -64 180 -108 28 -12 171 -47 239 -59 139 -24 419 -25 556 -2
14 3 41 7 60 10 29 4 94 18 195 41 26 6 220 71 259 87 147 61 354 179 481 277
121 92 282 253 344 344 8 12 17 24 21 27 6 6 59 85 76 115 6 11 24 43 39 70
15 28 30 55 33 60 4 6 7 12 7 15 1 3 9 23 19 45 54 122 115 314 132 420 3 17
7 37 10 45 24 69 23 374 -1 460 -2 8 -6 26 -9 40 -27 131 -96 280 -186 400
-39 52 -177 200 -186 200 -3 0 -32 22 -65 50 -33 27 -70 55 -82 61 -12 7 -24
15 -27 18 -12 14 -186 111 -200 111 -5 0 -10 5 -10 10 0 6 -4 10 -9 10 -4 0
-39 14 -77 32 -38 17 -74 33 -80 34 -6 1 -27 9 -45 17 -107 48 -371 130 -507
158 -24 5 -47 11 -50 13 -4 2 -28 7 -52 11 -25 3 -61 10 -80 15 -19 5 -51 12
-70 15 -19 3 -46 7 -60 10 -14 2 -43 7 -65 10 -23 3 -52 7 -65 10 -13 2 -44 7
-69 10 -25 3 -59 7 -76 9 -58 8 -170 19 -205 22 -19 1 -35 3 -35 4 0 5 -605 6
-609 2z"/>
<path d="M2487 6423 c-1 -1 -27 -4 -57 -7 -54 -6 -63 -7 -149 -20 -25 -4 -88
-19 -140 -33 -53 -13 -103 -26 -111 -28 -27 -7 -104 -35 -125 -46 -12 -6 -27
-11 -35 -13 -8 -1 -33 -11 -55 -21 -22 -11 -42 -20 -45 -21 -32 -9 -50 -18
-50 -23 0 -4 -23 -15 -51 -26 -28 -11 -59 -28 -69 -37 -11 -10 -23 -18 -28
-18 -4 0 -48 -27 -98 -61 -406 -277 -648 -614 -764 -1064 -26 -101 -33 -135
-47 -220 -10 -65 -12 -343 -2 -390 6 -27 12 -65 15 -83 6 -48 52 -179 86 -247
92 -183 247 -349 443 -477 247 -160 517 -259 965 -352 8 -2 49 -9 90 -16 41
-6 86 -13 100 -16 28 -4 159 -21 237 -29 137 -15 317 -24 503 -25 213 -1 367
9 580 35 19 2 60 7 90 10 61 6 115 13 145 19 11 2 45 7 75 11 30 4 64 9 75 11
11 3 36 6 55 9 19 3 91 16 160 30 69 14 139 27 155 30 17 2 59 12 95 21 36 9
74 18 85 20 11 1 37 7 57 12 20 5 39 7 42 4 4 -3 6 1 6 8 0 7 3 11 6 8 3 -4
20 -2 37 3 18 6 40 12 51 14 10 3 44 12 75 21 31 10 58 18 61 19 3 1 25 7 50
14 25 7 81 24 125 39 44 14 82 27 85 27 19 5 314 117 355 135 59 26 79 33 88
32 4 -1 7 3 7 8 0 6 5 10 11 10 21 0 306 147 404 208 84 53 210 136 215 141 3
3 32 26 65 51 91 68 139 119 171 185 25 52 28 70 28 145 0 47 -6 103 -13 125
-60 188 -204 332 -361 361 -66 12 -125 5 -201 -21 -22 -8 -43 -15 -47 -16 -18
-4 -182 -70 -242 -97 -160 -74 -270 -119 -274 -114 -3 3 -6 0 -6 -6 0 -6 -10
-14 -22 -17 -13 -4 -52 -21 -88 -37 -61 -28 -108 -49 -120 -53 -3 -1 -30 -13
-62 -27 -31 -14 -67 -29 -80 -33 -12 -4 -27 -11 -33 -15 -13 -10 -216 -95
-405 -170 -80 -31 -154 -61 -165 -65 -11 -5 -22 -9 -25 -10 -3 -1 -12 -5 -20
-8 -8 -4 -67 -25 -130 -47 -63 -23 -124 -45 -135 -50 -23 -10 -272 -91 -295
-95 -8 -2 -16 -4 -17 -5 -2 -2 -6 -3 -10 -4 -5 -1 -24 -7 -44 -14 -20 -7 -45
-15 -55 -17 -10 -3 -98 -25 -194 -50 -96 -25 -186 -47 -200 -50 -14 -3 -50 -9
-80 -15 -30 -6 -66 -12 -80 -15 -14 -3 -43 -8 -65 -11 -22 -3 -46 -7 -53 -9
-7 -3 -40 -7 -75 -11 -34 -3 -73 -7 -87 -10 -135 -21 -541 -21 -603 1 -6 2
-30 6 -52 9 -167 18 -396 109 -545 215 -82 58 -201 175 -248 243 -44 65 -71
188 -67 307 4 133 4 128 25 194 31 94 79 182 145 266 38 49 160 167 208 200
26 19 47 38 47 43 0 4 5 8 12 8 6 0 26 11 44 25 18 14 37 25 42 25 6 0 12 4
14 8 8 20 386 219 451 237 4 2 9 4 12 5 3 1 8 3 13 4 4 1 17 7 28 14 12 6 24
8 28 5 3 -3 6 0 6 7 0 7 3 11 6 8 3 -4 30 5 60 18 30 13 56 24 59 24 6 1 29 8
53 17 9 3 22 7 27 9 109 31 440 153 478 176 66 40 156 131 166 168 36 138 -25
232 -193 295 -36 13 -75 26 -88 29 -13 2 -43 9 -68 14 -76 17 -169 25 -308 26
-74 1 -134 0 -135 -1z"/>
</g>
</svg>
